<?xml version="1.0" encoding="utf-8"?>
<!-- Generator: Adobe Illustrator 16.0.3, SVG Export Plug-In . SVG Version: 6.00 Build 0)  -->
<!DOCTYPE svg PUBLIC "-//W3C//DTD SVG 1.1//EN" "http://www.w3.org/Graphics/SVG/1.1/DTD/svg11.dtd">
<svg version="1.1" id="Layer_1" xmlns="http://www.w3.org/2000/svg" xmlns:xlink="http://www.w3.org/1999/xlink" x="0px" y="0px"
	 width="208px" height="205px" viewBox="0 0 208 205" enable-background="new 0 0 208 205" xml:space="preserve">
<path fill="#DDDDDD" d="M102.438,74.063H45.563c-3.609,0-6.563,2.952-6.563,6.563v43.75c0,3.61,2.953,6.563,6.563,6.563h56.875
	c3.61,0,6.563-2.953,6.563-6.563v-43.75C109,77.015,106.048,74.063,102.438,74.063z M66.258,102.936L47.75,117.352V83.061
	L66.258,102.936z M51.058,82.813h45.885L74,100.039L51.058,82.813z M66.978,103.709L74,111.25l7.021-7.541l14.395,18.479h-42.83
	l14.394-18.479H66.978z M81.742,102.936l18.508-19.875v34.291L81.742,102.936z"/>
</svg>
