<?xml version="1.0" encoding="utf-8"?>
<!-- Generator: Adobe Illustrator 16.0.3, SVG Export Plug-In . SVG Version: 6.00 Build 0)  -->
<!DOCTYPE svg PUBLIC "-//W3C//DTD SVG 1.1//EN" "http://www.w3.org/Graphics/SVG/1.1/DTD/svg11.dtd">
<svg version="1.1" id="Layer_1" xmlns="http://www.w3.org/2000/svg" xmlns:xlink="http://www.w3.org/1999/xlink" x="0px" y="0px"
	 width="208px" height="205px" viewBox="0 0 208 205" enable-background="new 0 0 208 205" xml:space="preserve">
<path fill="#DDDDDD" d="M132.438,64.063H75.563c-3.609,0-6.563,2.952-6.563,6.563v43.75c0,3.61,2.953,6.563,6.563,6.563h56.875
	c3.61,0,6.563-2.953,6.563-6.563v-43.75C139,67.015,136.048,64.063,132.438,64.063z M96.258,92.936L77.75,107.352V73.061
	L96.258,92.936z M81.058,72.813h45.885L104,90.039L81.058,72.813z M96.978,93.709L104,101.25l7.021-7.541l14.395,18.479h-42.83
	L96.98,93.709H96.978z M111.742,92.936l18.508-19.875v34.291L111.742,92.936z"/>
</svg>
