<?xml version="1.0" encoding="utf-8"?>
<!-- Generator: Adobe Illustrator 16.0.3, SVG Export Plug-In . SVG Version: 6.00 Build 0)  -->
<!DOCTYPE svg PUBLIC "-//W3C//DTD SVG 1.1//EN" "http://www.w3.org/Graphics/SVG/1.1/DTD/svg11.dtd">
<svg version="1.1" id="Layer_1" xmlns="http://www.w3.org/2000/svg" xmlns:xlink="http://www.w3.org/1999/xlink" x="0px" y="0px"
	 width="208px" height="205px" viewBox="0 0 208 205" enable-background="new 0 0 208 205" xml:space="preserve">
<path fill="#DDDDDD" d="M128.375,60h-48.75c-3.352,0-6.094,2.742-6.094,6.094v52.812c0,3.354,2.742,6.095,6.094,6.095h48.75
	c3.354,0,6.094-2.741,6.094-6.095V66.094C134.469,62.742,131.729,60,128.375,60z M126.344,116.875H81.656v-48.75h44.688V116.875z
	 M89.781,88.438h28.438v4.063H89.781V88.438z M89.781,96.563h28.438v4.063H89.781V96.563z M89.781,104.688h28.438v4.063H89.781
	V104.688z M89.781,80.313h28.438v4.063H89.781V80.313z"/>
</svg>
