<?xml version="1.0" encoding="utf-8"?>
<!-- Generator: Adobe Illustrator 16.0.3, SVG Export Plug-In . SVG Version: 6.00 Build 0)  -->
<!DOCTYPE svg PUBLIC "-//W3C//DTD SVG 1.1//EN" "http://www.w3.org/Graphics/SVG/1.1/DTD/svg11.dtd">
<svg version="1.1" id="Layer_1" xmlns="http://www.w3.org/2000/svg" xmlns:xlink="http://www.w3.org/1999/xlink" x="0px" y="0px"
	 width="208px" height="205px" viewBox="0 0 208 205" enable-background="new 0 0 208 205" xml:space="preserve">
<path fill="#DDDDDD" d="M104,57.5c-19.331,0-35,15.669-35,35s15.669,35,35,35c19.33,0,35-15.669,35-35S123.33,57.5,104,57.5z
	 M90.875,92.5c0-7.25,5.875-13.125,13.125-13.125s13.125,5.875,13.125,13.125S111.25,105.625,104,105.625S90.875,99.75,90.875,92.5z
	 M132.301,104.225L132.301,104.225l-12.129-5.021c0.855-2.063,1.33-4.326,1.33-6.699s-0.473-4.636-1.33-6.699l12.129-5.024
	c1.498,3.612,2.324,7.571,2.324,11.724C134.625,96.654,133.796,100.611,132.301,104.225L132.301,104.225z M115.725,64.199
	L115.725,64.199L115.725,64.199l-5.021,12.13C108.637,75.472,106.373,75,104,75c-2.374,0-4.636,0.472-6.698,1.329l-5.024-12.13
	c3.611-1.495,7.569-2.324,11.723-2.324C108.152,61.875,112.111,62.704,115.725,64.199z M75.7,80.776L87.827,85.8
	c-0.855,2.063-1.33,4.326-1.33,6.699s0.472,4.636,1.328,6.698l-12.127,5.026c-1.499-3.614-2.325-7.573-2.325-11.728
	c0-4.153,0.829-8.111,2.325-11.724H75.7V80.776z M92.277,120.801l5.024-12.13c2.063,0.856,4.325,1.331,6.698,1.331
	s4.636-0.473,6.699-1.331l5.024,12.13c-3.613,1.495-7.572,2.324-11.728,2.324C99.846,123.125,95.889,122.296,92.277,120.801z"/>
</svg>
