<?xml version="1.0" encoding="utf-8"?>
<!-- Generator: Adobe Illustrator 16.0.3, SVG Export Plug-In . SVG Version: 6.00 Build 0)  -->
<!DOCTYPE svg PUBLIC "-//W3C//DTD SVG 1.1//EN" "http://www.w3.org/Graphics/SVG/1.1/DTD/svg11.dtd">
<svg version="1.1" id="Layer_1" xmlns="http://www.w3.org/2000/svg" xmlns:xlink="http://www.w3.org/1999/xlink" x="0px" y="0px"
	 width="208px" height="205px" viewBox="0 0 208 205" enable-background="new 0 0 208 205" xml:space="preserve">
<path fill="#DDDDDD" d="M74,67.5c-19.331,0-35,15.669-35,35s15.669,35,35,35c19.33,0,35-15.669,35-35S93.33,67.5,74,67.5z
	 M60.875,102.5c0-7.25,5.875-13.125,13.125-13.125S87.125,95.25,87.125,102.5S81.25,115.625,74,115.625S60.875,109.75,60.875,102.5z
	 M102.301,114.225L102.301,114.225l-12.129-5.021c0.855-2.063,1.33-4.326,1.33-6.699s-0.473-4.636-1.33-6.699l12.129-5.024
	c1.498,3.612,2.324,7.571,2.324,11.724C104.625,106.654,103.796,110.611,102.301,114.225L102.301,114.225z M85.725,74.199
	L85.725,74.199L85.725,74.199l-5.021,12.13C78.637,85.472,76.373,85,74,85c-2.374,0-4.636,0.472-6.698,1.329l-5.024-12.13
	c3.611-1.495,7.569-2.324,11.723-2.324C78.152,71.875,82.111,72.704,85.725,74.199z M45.7,90.776L57.827,95.8
	c-0.855,2.063-1.33,4.326-1.33,6.699s0.472,4.636,1.328,6.698l-12.127,5.025c-1.499-3.613-2.325-7.572-2.325-11.728
	c0-4.153,0.829-8.111,2.325-11.724H45.7V90.776z M62.277,130.801l5.024-12.13c2.063,0.856,4.325,1.331,6.698,1.331
	s4.636-0.473,6.699-1.331l5.024,12.13c-3.613,1.495-7.572,2.324-11.729,2.324C69.846,133.125,65.889,132.296,62.277,130.801z"/>
</svg>
