<?xml version="1.0" encoding="utf-8"?>
<!-- Generator: Adobe Illustrator 16.0.3, SVG Export Plug-In . SVG Version: 6.00 Build 0)  -->
<!DOCTYPE svg PUBLIC "-//W3C//DTD SVG 1.1//EN" "http://www.w3.org/Graphics/SVG/1.1/DTD/svg11.dtd">
<svg version="1.1" id="Layer_1" xmlns="http://www.w3.org/2000/svg" xmlns:xlink="http://www.w3.org/1999/xlink" x="0px" y="0px"
	 width="208px" height="205px" viewBox="0 0 208 205" enable-background="new 0 0 208 205" xml:space="preserve">
<g>
	<path fill="#DDDDDD" d="M48.553,72.5h-15c-1.375,0-2.5,1.126-2.5,2.5v55c0,1.375,1.125,2.5,2.5,2.5h15c1.374,0,2.5-1.125,2.5-2.5
		V75C51.053,73.626,49.927,72.5,48.553,72.5z M46.053,87.5h-10v-5h10V87.5z"/>
	<path fill="#DDDDDD" d="M73.553,72.5H58.552c-1.374,0-2.499,1.126-2.499,2.5v55c0,1.375,1.125,2.5,2.499,2.5h15.001
		c1.374,0,2.5-1.125,2.5-2.5V75C76.053,73.626,74.927,72.5,73.553,72.5z M71.053,87.5h-10v-5h10V87.5z"/>
	<path fill="#DDDDDD" d="M90.826,76.365l-13.396,6.75c-1.225,0.618-1.727,2.13-1.104,3.357l22.494,44.653
		c0.617,1.229,2.135,1.727,3.356,1.105l13.396-6.75c1.228-0.619,1.728-2.129,1.105-3.357L94.18,77.471
		C93.564,76.245,92.055,75.745,90.826,76.365z"/>
	<path fill="#DDDDDD" d="M103.553,130c0,1.382-1.119,2.5-2.5,2.5c-1.379,0-2.5-1.118-2.5-2.5c0-1.383,1.121-2.5,2.5-2.5
		C102.434,127.5,103.553,128.617,103.553,130z"/>
</g>
</svg>
