<?xml version="1.0" encoding="utf-8"?>
<!-- Generator: Adobe Illustrator 16.0.3, SVG Export Plug-In . SVG Version: 6.00 Build 0)  -->
<!DOCTYPE svg PUBLIC "-//W3C//DTD SVG 1.1//EN" "http://www.w3.org/Graphics/SVG/1.1/DTD/svg11.dtd">
<svg version="1.1" id="Layer_1" xmlns="http://www.w3.org/2000/svg" xmlns:xlink="http://www.w3.org/1999/xlink" x="0px" y="0px"
	 width="208px" height="205px" viewBox="0 0 208 205" enable-background="new 0 0 208 205" xml:space="preserve">
<g>
	<path fill="#DDDDDD" d="M78.553,62.5h-15c-1.375,0-2.5,1.126-2.5,2.5v55c0,1.375,1.125,2.5,2.5,2.5h15c1.374,0,2.5-1.125,2.5-2.5
		V65C81.053,63.626,79.927,62.5,78.553,62.5z M76.053,77.5h-10v-5h10V77.5z"/>
	<path fill="#DDDDDD" d="M103.553,62.5H88.552c-1.374,0-2.499,1.126-2.499,2.5v55c0,1.375,1.125,2.5,2.499,2.5h15.001
		c1.374,0,2.5-1.125,2.5-2.5V65C106.053,63.626,104.927,62.5,103.553,62.5z M101.053,77.5h-10v-5h10V77.5z"/>
	<path fill="#DDDDDD" d="M120.826,66.365l-13.396,6.75c-1.225,0.618-1.727,2.13-1.104,3.357l22.494,44.653
		c0.617,1.229,2.135,1.727,3.357,1.105l13.396-6.75c1.227-0.619,1.727-2.129,1.105-3.357l-22.498-44.652
		C123.564,66.245,122.055,65.745,120.826,66.365z"/>
	<path fill="#DDDDDD" d="M133.553,120c0,1.382-1.119,2.5-2.5,2.5c-1.379,0-2.5-1.118-2.5-2.5c0-1.383,1.121-2.5,2.5-2.5
		C132.434,117.5,133.553,118.617,133.553,120z"/>
</g>
</svg>
