<?xml version="1.0" encoding="utf-8"?>
<!-- Generator: Adobe Illustrator 16.0.3, SVG Export Plug-In . SVG Version: 6.00 Build 0)  -->
<!DOCTYPE svg PUBLIC "-//W3C//DTD SVG 1.1//EN" "http://www.w3.org/Graphics/SVG/1.1/DTD/svg11.dtd">
<svg version="1.1" id="Layer_1" xmlns="http://www.w3.org/2000/svg" xmlns:xlink="http://www.w3.org/1999/xlink" x="0px" y="0px"
	 width="436px" height="85px" viewBox="0 0 436 85" enable-background="new 0 0 436 85" xml:space="preserve">
<g>
	<g>
		<path fill="#1A1A1A" d="M113.036,54.796c0,3.89-0.355,7.058-1.064,9.505c-0.71,2.448-1.613,4.37-2.711,5.766
			s-2.323,2.355-3.671,2.882c-1.35,0.524-2.666,0.789-3.946,0.789c-2.059,0-3.798-0.47-5.216-1.407
			c-1.418-0.937-2.471-2.23-3.157-3.877h-0.137v16.402h-7.412V35.854h7v4.53h0.137c0.778-1.648,1.842-2.974,3.192-3.981
			c1.349-1.006,3.054-1.51,5.112-1.51c4.209,0,7.24,1.728,9.093,5.181C112.109,43.53,113.036,48.438,113.036,54.796z
			 M105.212,54.453c0-2.104-0.081-3.991-0.24-5.662c-0.161-1.67-0.47-3.099-0.927-4.289c-0.458-1.189-1.098-2.104-1.922-2.746
			c-0.823-0.64-1.876-0.961-3.157-0.961c-1.281,0-2.322,0.309-3.122,0.926c-0.801,0.618-1.43,1.5-1.888,2.644
			c-0.458,1.144-0.778,2.527-0.96,4.152c-0.184,1.624-0.274,3.42-0.274,5.387c0,2.195,0.079,4.164,0.24,5.902
			c0.16,1.738,0.48,3.203,0.96,4.392c0.48,1.19,1.121,2.093,1.922,2.71c0.8,0.619,1.863,0.928,3.191,0.928
			c1.052,0,1.966-0.217,2.745-0.652c0.778-0.435,1.418-1.167,1.921-2.197c0.503-1.028,0.881-2.4,1.132-4.117
			C105.085,59.154,105.212,57.016,105.212,54.453z"/>
		<path fill="#1A1A1A" d="M125.113,55.275v2.129c0,1.234,0.057,2.516,0.172,3.843c0.114,1.327,0.388,2.539,0.823,3.638
			c0.435,1.098,1.064,2.002,1.888,2.711c0.823,0.709,1.921,1.063,3.293,1.063c1.327,0,2.378-0.319,3.157-0.961
			c0.778-0.64,1.374-1.407,1.785-2.3c0.412-0.893,0.674-1.807,0.79-2.744c0.114-0.938,0.172-1.682,0.172-2.23h7
			c0,4.164-1.156,7.424-3.466,9.779c-2.311,2.357-5.479,3.534-9.505,3.534c-1.51,0-3.065-0.183-4.667-0.549s-3.053-1.19-4.357-2.471
			s-2.379-3.179-3.226-5.696c-0.847-2.516-1.27-5.901-1.27-10.156c0-2.425,0.171-4.827,0.515-7.207
			c0.343-2.378,1.005-4.517,1.99-6.417c0.983-1.897,2.368-3.431,4.152-4.598c1.784-1.167,4.117-1.75,7-1.75
			c2.561,0,4.689,0.377,6.382,1.132c1.692,0.755,3.031,1.842,4.015,3.26c0.983,1.418,1.669,3.146,2.059,5.182
			c0.388,2.036,0.583,4.335,0.583,6.897v3.91H125.113z M136.986,50.197v-1.99c0-2.332-0.424-4.289-1.27-5.868
			c-0.847-1.578-2.323-2.367-4.427-2.367c-1.19,0-2.173,0.264-2.951,0.789c-0.778,0.526-1.407,1.235-1.887,2.127
			c-0.48,0.893-0.824,1.912-1.03,3.055c-0.205,1.145-0.309,2.311-0.309,3.5v0.754H136.986z"/>
		<path fill="#1A1A1A" d="M150.505,35.854h7.412v5.765h0.137c0.824-2.059,1.933-3.694,3.329-4.907
			c1.395-1.211,3.145-1.818,5.25-1.818c0.868,0,1.464,0.092,1.784,0.274v7.549c-0.274-0.092-0.698-0.182-1.269-0.274
			c-0.573-0.091-1.179-0.138-1.819-0.138c-0.823,0-1.681,0.115-2.573,0.344s-1.693,0.652-2.402,1.269
			c-0.709,0.618-1.293,1.477-1.75,2.574c-0.458,1.098-0.686,2.494-0.686,4.186v22.099h-7.412V35.854z"/>
		<path fill="#1A1A1A" d="M172.465,23.776h7.412v49h-7.412V23.776z"/>
		<path fill="#1A1A1A" d="M188.111,63.718h7.824v9.059h-7.824V63.718z"/>
		<path fill="#1A1A1A" d="M231.14,54.796c0,3.89-0.355,7.058-1.063,9.505c-0.71,2.448-1.612,4.37-2.711,5.766
			s-2.322,2.355-3.671,2.882c-1.351,0.524-2.666,0.789-3.947,0.789c-2.058,0-3.797-0.47-5.215-1.407
			c-1.418-0.937-2.47-2.23-3.157-3.877h-0.137v16.402h-7.412V35.854h7v4.53h0.137c0.778-1.648,1.842-2.974,3.192-3.981
			c1.349-1.006,3.054-1.51,5.113-1.51c4.208,0,7.239,1.728,9.093,5.181C230.214,43.53,231.14,48.438,231.14,54.796z M223.316,54.453
			c0-2.104-0.081-3.991-0.24-5.662c-0.161-1.67-0.47-3.099-0.927-4.289c-0.457-1.189-1.098-2.104-1.922-2.746
			c-0.823-0.64-1.876-0.961-3.157-0.961c-1.281,0-2.322,0.309-3.122,0.926c-0.802,0.618-1.431,1.5-1.888,2.644
			c-0.458,1.144-0.779,2.527-0.961,4.152c-0.184,1.624-0.274,3.42-0.274,5.387c0,2.195,0.079,4.164,0.24,5.902
			c0.16,1.738,0.48,3.203,0.96,4.392c0.48,1.19,1.121,2.093,1.922,2.71c0.8,0.619,1.863,0.928,3.191,0.928
			c1.052,0,1.966-0.217,2.746-0.652c0.777-0.435,1.417-1.167,1.92-2.197c0.504-1.028,0.882-2.4,1.133-4.117
			C223.19,59.154,223.316,57.016,223.316,54.453z"/>
		<path fill="#1A1A1A" d="M233.541,35.854h5.079v-10.5h7.412v10.5h6.038v5.491h-6.038v22.029c0,1.466,0.24,2.483,0.72,3.055
			c0.48,0.572,1.36,0.858,2.642,0.858c1.098,0,1.99-0.07,2.677-0.207v5.49c-1.602,0.412-3.592,0.618-5.97,0.618
			c-1.236,0-2.323-0.115-3.261-0.344c-0.938-0.228-1.716-0.662-2.333-1.304c-0.618-0.64-1.087-1.544-1.406-2.711
			c-0.32-1.166-0.48-2.688-0.48-4.563V41.345h-5.079V35.854z"/>
	</g>
	<g>
		<path fill="#666666" d="M275.011,44.705h1.115l2.941,9.952h-0.947l-0.809-2.899h-3.484l-0.809,2.899h-0.948L275.011,44.705z
			 M277.116,51.006l-1.533-5.604h-0.027l-1.533,5.604H277.116z"/>
		<path fill="#666666" d="M284.546,47.256c0-0.613-0.145-1.094-0.432-1.442c-0.289-0.349-0.74-0.522-1.354-0.522
			c-0.307,0-0.576,0.046-0.808,0.139c-0.233,0.094-0.428,0.221-0.586,0.384c-0.157,0.162-0.278,0.351-0.362,0.564
			s-0.125,0.446-0.125,0.696c0,0.492,0.118,0.874,0.355,1.143c0.236,0.271,0.534,0.486,0.892,0.648
			c0.358,0.163,0.745,0.305,1.164,0.426c0.418,0.121,0.806,0.279,1.163,0.474c0.358,0.195,0.656,0.458,0.893,0.788
			c0.237,0.33,0.355,0.782,0.355,1.359c0,0.482-0.072,0.905-0.216,1.268c-0.144,0.363-0.349,0.667-0.613,0.913
			c-0.265,0.247-0.581,0.431-0.948,0.55c-0.367,0.121-0.777,0.182-1.233,0.182c-0.948,0-1.668-0.246-2.16-0.738
			c-0.493-0.492-0.739-1.231-0.739-2.217v-0.293h0.893v0.377c0,0.641,0.162,1.154,0.488,1.541c0.324,0.385,0.822,0.578,1.491,0.578
			c0.642,0,1.159-0.162,1.554-0.488c0.395-0.325,0.593-0.836,0.593-1.533c0-0.371-0.069-0.676-0.21-0.913
			c-0.139-0.237-0.32-0.435-0.543-0.593s-0.48-0.287-0.773-0.39s-0.588-0.202-0.885-0.3c-0.298-0.098-0.594-0.209-0.886-0.334
			c-0.292-0.126-0.55-0.287-0.773-0.482c-0.224-0.194-0.404-0.44-0.544-0.738c-0.139-0.297-0.209-0.674-0.209-1.129
			c0-0.391,0.063-0.748,0.188-1.073s0.304-0.602,0.536-0.829s0.519-0.406,0.857-0.537c0.34-0.129,0.727-0.195,1.164-0.195
			c0.93,0,1.611,0.229,2.049,0.684s0.656,1.135,0.656,2.035H284.546z"/>
		<path fill="#666666" d="M291.584,47.256c0-0.613-0.144-1.094-0.432-1.442s-0.739-0.522-1.353-0.522
			c-0.307,0-0.576,0.046-0.809,0.139c-0.232,0.094-0.428,0.221-0.585,0.384c-0.157,0.162-0.278,0.351-0.362,0.564
			s-0.126,0.446-0.126,0.696c0,0.492,0.118,0.874,0.356,1.143c0.236,0.271,0.533,0.486,0.892,0.648
			c0.357,0.163,0.745,0.305,1.163,0.426s0.807,0.279,1.164,0.474c0.357,0.195,0.655,0.458,0.893,0.788s0.355,0.782,0.355,1.359
			c0,0.482-0.072,0.905-0.217,1.268c-0.144,0.363-0.348,0.667-0.613,0.913c-0.264,0.247-0.58,0.431-0.947,0.55
			c-0.367,0.121-0.778,0.182-1.233,0.182c-0.948,0-1.668-0.246-2.161-0.738c-0.492-0.492-0.738-1.231-0.738-2.217v-0.293h0.893
			v0.377c0,0.641,0.162,1.154,0.488,1.541c0.324,0.385,0.822,0.578,1.49,0.578c0.642,0,1.16-0.162,1.555-0.488
			c0.395-0.325,0.592-0.836,0.592-1.533c0-0.371-0.069-0.676-0.209-0.913c-0.139-0.237-0.32-0.435-0.543-0.593
			s-0.48-0.287-0.773-0.39s-0.588-0.202-0.886-0.3s-0.593-0.209-0.886-0.334c-0.292-0.126-0.55-0.287-0.772-0.482
			c-0.224-0.194-0.405-0.44-0.544-0.738c-0.139-0.297-0.209-0.674-0.209-1.129c0-0.391,0.063-0.748,0.188-1.073
			s0.304-0.602,0.536-0.829s0.518-0.406,0.857-0.537c0.34-0.129,0.727-0.195,1.164-0.195c0.93,0,1.611,0.229,2.049,0.684
			c0.437,0.455,0.655,1.135,0.655,2.035H291.584z"/>
		<path fill="#666666" d="M294.177,49.682c0-1.785,0.273-3.088,0.822-3.91s1.334-1.234,2.355-1.234c1.014,0,1.797,0.412,2.35,1.234
			s0.829,2.125,0.829,3.91c0,1.783-0.276,3.087-0.829,3.909c-0.553,0.823-1.336,1.233-2.35,1.233c-1.021,0-1.807-0.41-2.355-1.233
			C294.45,52.769,294.177,51.465,294.177,49.682z M295.069,49.682c0,0.808,0.053,1.491,0.16,2.049
			c0.106,0.557,0.258,1.01,0.453,1.359c0.195,0.348,0.434,0.6,0.718,0.752c0.283,0.154,0.601,0.23,0.954,0.23
			s0.672-0.076,0.955-0.23c0.283-0.152,0.523-0.404,0.719-0.752c0.194-0.35,0.346-0.803,0.453-1.359
			c0.105-0.558,0.159-1.241,0.159-2.049c0-0.809-0.054-1.492-0.159-2.049c-0.107-0.559-0.259-1.012-0.453-1.359
			c-0.195-0.349-0.436-0.6-0.719-0.753s-0.602-0.229-0.955-0.229s-0.671,0.076-0.954,0.229c-0.284,0.153-0.522,0.404-0.718,0.753
			c-0.195,0.348-0.347,0.801-0.453,1.359C295.122,48.189,295.069,48.873,295.069,49.682z"/>
		<path fill="#666666" d="M308.408,51.284c-0.065,1.152-0.349,2.03-0.851,2.634c-0.502,0.605-1.203,0.906-2.104,0.906
			c-1.023,0-1.809-0.41-2.356-1.233c-0.548-0.822-0.823-2.126-0.823-3.909c0-1.785,0.275-3.088,0.823-3.91s1.333-1.234,2.356-1.234
			c0.501,0,0.934,0.084,1.295,0.252c0.363,0.166,0.66,0.391,0.893,0.668c0.232,0.279,0.402,0.604,0.509,0.977
			c0.106,0.371,0.161,0.762,0.161,1.17h-0.893c0-0.678-0.168-1.232-0.502-1.664c-0.334-0.434-0.822-0.648-1.463-0.648
			c-0.354,0-0.672,0.076-0.955,0.229c-0.284,0.153-0.523,0.404-0.719,0.753c-0.194,0.348-0.346,0.801-0.453,1.359
			c-0.106,0.557-0.16,1.24-0.16,2.049c0,0.808,0.054,1.491,0.16,2.049c0.107,0.557,0.259,1.01,0.453,1.359
			c0.195,0.348,0.435,0.6,0.719,0.752c0.283,0.154,0.602,0.23,0.955,0.23c0.641,0,1.133-0.246,1.477-0.739s0.539-1.175,0.586-2.049
			H308.408z"/>
		<path fill="#666666" d="M309.997,44.705h0.893v9.952h-0.893V44.705z"/>
		<path fill="#666666" d="M315.001,44.705h1.115l2.941,9.952h-0.947l-0.809-2.899h-3.485l-0.809,2.899h-0.948L315.001,44.705z
			 M317.106,51.006l-1.533-5.604h-0.028l-1.533,5.604H317.106z"/>
		<path fill="#666666" d="M326.222,51.284c-0.074,1.152-0.357,2.03-0.85,2.634c-0.455,0.539-1.064,0.837-1.826,0.893l-0.475,0.613
			l0.028,0.014c0.065-0.027,0.137-0.047,0.216-0.055c0.079-0.01,0.165-0.015,0.258-0.015c0.297,0,0.551,0.091,0.76,0.272
			c0.209,0.181,0.314,0.401,0.314,0.662c0,0.194-0.047,0.366-0.141,0.516c-0.092,0.148-0.211,0.271-0.355,0.369
			c-0.144,0.098-0.305,0.172-0.48,0.223s-0.344,0.076-0.502,0.076c-0.214,0-0.438-0.027-0.676-0.083
			c-0.236-0.056-0.426-0.121-0.564-0.194l0.168-0.434c0.111,0.057,0.238,0.105,0.383,0.146c0.145,0.043,0.295,0.063,0.453,0.063
			c0.334,0,0.578-0.06,0.731-0.181c0.153-0.12,0.229-0.265,0.229-0.433c0-0.176-0.076-0.304-0.229-0.383s-0.323-0.118-0.509-0.118
			c-0.26,0-0.465,0.046-0.613,0.14l-0.182-0.237l0.684-0.962c-0.92-0.056-1.631-0.46-2.133-1.213
			c-0.549-0.826-0.822-2.133-0.822-3.916c0-1.785,0.273-3.088,0.822-3.91s1.334-1.234,2.355-1.234c0.502,0,0.934,0.084,1.297,0.252
			c0.362,0.166,0.66,0.391,0.892,0.668c0.232,0.279,0.402,0.604,0.509,0.977c0.107,0.371,0.16,0.762,0.16,1.17h-0.892
			c0-0.678-0.167-1.232-0.502-1.664c-0.335-0.434-0.822-0.648-1.464-0.648c-0.354,0-0.672,0.076-0.955,0.229
			s-0.521,0.404-0.717,0.753c-0.195,0.348-0.347,0.801-0.453,1.359c-0.107,0.557-0.16,1.24-0.16,2.049
			c0,0.808,0.053,1.491,0.16,2.049c0.106,0.557,0.258,1.01,0.453,1.359c0.195,0.348,0.434,0.6,0.717,0.752
			c0.283,0.154,0.602,0.23,0.955,0.23c0.642,0,1.134-0.246,1.479-0.739c0.344-0.493,0.538-1.175,0.584-2.049H326.222z"/>
		<path fill="#666666" d="M329.902,44.705h1.115l2.94,9.952h-0.947l-0.809-2.899h-3.484l-0.809,2.899h-0.948L329.902,44.705z
			 M332.327,42.349c0,0.139-0.025,0.291-0.076,0.453c-0.051,0.163-0.123,0.312-0.216,0.446s-0.204,0.246-0.335,0.335
			s-0.279,0.132-0.445,0.132c-0.131,0-0.246-0.016-0.349-0.049c-0.103-0.031-0.214-0.085-0.335-0.16l-0.529-0.293
			c-0.168-0.074-0.279-0.111-0.334-0.111c-0.131,0-0.24,0.072-0.328,0.217s-0.146,0.295-0.174,0.453h-0.614
			c0.01-0.148,0.042-0.303,0.098-0.461c0.056-0.157,0.13-0.304,0.224-0.439c0.092-0.135,0.201-0.246,0.327-0.334
			s0.263-0.132,0.411-0.132c0.158,0,0.291,0.019,0.396,0.056c0.107,0.038,0.24,0.103,0.398,0.195l0.361,0.208
			c0.158,0.103,0.298,0.154,0.419,0.154c0.083,0,0.155-0.024,0.216-0.07s0.111-0.104,0.154-0.174c0.041-0.07,0.071-0.144,0.09-0.223
			c0.019-0.079,0.027-0.146,0.027-0.202H332.327z M332.007,51.006l-1.533-5.604h-0.027l-1.533,5.604H332.007z"/>
		<path fill="#666666" d="M334.989,49.682c0-1.785,0.274-3.088,0.823-3.91c0.548-0.822,1.333-1.234,2.355-1.234
			c1.013,0,1.796,0.412,2.349,1.234s0.83,2.125,0.83,3.91c0,1.783-0.277,3.087-0.83,3.909c-0.553,0.823-1.336,1.233-2.349,1.233
			c-1.022,0-1.808-0.41-2.355-1.233C335.264,52.769,334.989,51.465,334.989,49.682z M335.882,49.682c0,0.808,0.053,1.491,0.16,2.049
			c0.107,0.557,0.258,1.01,0.453,1.359c0.195,0.348,0.434,0.6,0.719,0.752c0.283,0.154,0.601,0.23,0.954,0.23
			c0.353,0,0.671-0.076,0.954-0.23c0.283-0.152,0.523-0.404,0.719-0.752c0.195-0.35,0.346-0.803,0.453-1.359
			c0.106-0.558,0.16-1.241,0.16-2.049c0-0.809-0.054-1.492-0.16-2.049c-0.107-0.559-0.258-1.012-0.453-1.359
			c-0.195-0.349-0.436-0.6-0.719-0.753s-0.602-0.229-0.954-0.229c-0.354,0-0.671,0.076-0.954,0.229
			c-0.285,0.153-0.523,0.404-0.719,0.753c-0.195,0.348-0.346,0.801-0.453,1.359C335.935,48.189,335.882,48.873,335.882,49.682z"/>
		<path fill="#666666" d="M346.865,44.705h2.69c0.474,0,0.883,0.067,1.227,0.202s0.627,0.325,0.851,0.571
			c0.223,0.246,0.388,0.543,0.495,0.893c0.105,0.348,0.16,0.731,0.16,1.149c0,0.382-0.052,0.743-0.154,1.087
			c-0.102,0.344-0.271,0.645-0.508,0.899c-0.238,0.256-0.551,0.458-0.941,0.606s-0.869,0.223-1.436,0.223h-1.492v4.321h-0.892
			V44.705z M347.757,49.584h1.52c0.289,0,0.563-0.035,0.822-0.105c0.261-0.068,0.486-0.186,0.676-0.348
			c0.191-0.162,0.342-0.377,0.453-0.642c0.112-0.265,0.168-0.587,0.168-0.969c0-0.753-0.179-1.284-0.537-1.596
			c-0.357-0.312-0.885-0.468-1.582-0.468h-1.52V49.584z"/>
		<path fill="#666666" d="M353.821,49.682c0-1.785,0.273-3.088,0.822-3.91c0.548-0.822,1.333-1.234,2.355-1.234
			c1.013,0,1.795,0.412,2.349,1.234c0.553,0.822,0.829,2.125,0.829,3.91c0,1.783-0.276,3.087-0.829,3.909
			c-0.554,0.823-1.336,1.233-2.349,1.233c-1.022,0-1.808-0.41-2.355-1.233C354.095,52.769,353.821,51.465,353.821,49.682z
			 M354.714,49.682c0,0.808,0.053,1.491,0.159,2.049c0.106,0.557,0.259,1.01,0.453,1.359c0.195,0.348,0.435,0.6,0.718,0.752
			c0.283,0.154,0.602,0.23,0.955,0.23s0.671-0.076,0.955-0.23c0.283-0.152,0.522-0.404,0.718-0.752
			c0.194-0.35,0.346-0.803,0.453-1.359c0.106-0.558,0.159-1.241,0.159-2.049c0-0.809-0.053-1.492-0.159-2.049
			c-0.107-0.559-0.259-1.012-0.453-1.359c-0.195-0.349-0.435-0.6-0.718-0.753c-0.284-0.153-0.602-0.229-0.955-0.229
			s-0.672,0.076-0.955,0.229s-0.522,0.404-0.718,0.753c-0.194,0.348-0.347,0.801-0.453,1.359
			C354.767,48.189,354.714,48.873,354.714,49.682z"/>
		<path fill="#666666" d="M362.003,44.705h2.97c0.845,0,1.486,0.219,1.923,0.655c0.438,0.437,0.656,1.05,0.656,1.84
			c0,0.298-0.033,0.585-0.099,0.864c-0.065,0.278-0.167,0.529-0.307,0.752s-0.323,0.414-0.55,0.572
			c-0.229,0.158-0.51,0.27-0.844,0.334v0.028c0.623,0.056,1.057,0.267,1.303,0.634s0.379,0.941,0.397,1.722l0.028,1.087
			c0.009,0.27,0.037,0.532,0.084,0.788c0.045,0.255,0.158,0.48,0.334,0.676h-1.045c-0.103-0.177-0.17-0.386-0.203-0.628
			c-0.032-0.24-0.053-0.496-0.063-0.766l-0.027-0.836c-0.02-0.438-0.057-0.805-0.111-1.102c-0.057-0.297-0.156-0.537-0.301-0.719
			c-0.143-0.181-0.341-0.309-0.592-0.383s-0.576-0.111-0.976-0.111h-1.687v4.544h-0.893V44.705z M362.896,49.36h1.533
			c0.706,0,1.254-0.157,1.645-0.474s0.586-0.809,0.586-1.478c0-0.613-0.154-1.092-0.461-1.436s-0.863-0.517-1.672-0.517h-1.631
			V49.36z"/>
		<path fill="#666666" d="M370.938,45.457h-2.564v-0.752h6.021v0.752h-2.564v9.2h-0.893V45.457z"/>
		<path fill="#666666" d="M375.468,44.705h0.893v7.15c0,1.478,0.65,2.217,1.951,2.217s1.951-0.739,1.951-2.217v-7.15h0.893v7.164
			c0,1.051-0.244,1.806-0.732,2.266s-1.191,0.689-2.111,0.689s-1.623-0.229-2.111-0.689s-0.732-1.215-0.732-2.266V44.705z"/>
		<path fill="#666666" d="M385.741,50.336v-0.752h3.191v5.073h-0.697v-1.646h-0.027c-0.158,0.559-0.438,1-0.836,1.324
			c-0.4,0.326-0.852,0.488-1.353,0.488c-1.022,0-1.808-0.41-2.355-1.233c-0.549-0.822-0.823-2.126-0.823-3.909
			c0-1.785,0.274-3.088,0.823-3.91c0.548-0.822,1.333-1.234,2.355-1.234c0.474,0,0.885,0.075,1.233,0.224s0.637,0.353,0.864,0.614
			c0.228,0.26,0.404,0.57,0.53,0.934c0.125,0.361,0.201,0.757,0.229,1.184h-0.892c0-0.297-0.043-0.58-0.126-0.85
			s-0.207-0.504-0.369-0.703c-0.163-0.201-0.368-0.358-0.613-0.475c-0.247-0.116-0.532-0.174-0.857-0.174
			c-0.354,0-0.671,0.076-0.954,0.229c-0.284,0.153-0.523,0.404-0.719,0.753c-0.195,0.348-0.346,0.801-0.453,1.359
			c-0.106,0.557-0.16,1.24-0.16,2.049c0,0.808,0.054,1.491,0.16,2.049c0.107,0.557,0.258,1.01,0.453,1.359
			c0.195,0.348,0.435,0.6,0.719,0.752c0.283,0.154,0.601,0.23,0.954,0.23c0.669,0,1.183-0.293,1.54-0.879
			c0.357-0.585,0.537-1.468,0.537-2.648v-0.209H385.741z"/>
		<path fill="#666666" d="M390.619,44.705h0.892v7.15c0,1.478,0.65,2.217,1.951,2.217s1.952-0.739,1.952-2.217v-7.15h0.892v7.164
			c0,1.051-0.244,1.806-0.731,2.266s-1.191,0.689-2.112,0.689c-0.92,0-1.623-0.229-2.111-0.689c-0.487-0.46-0.731-1.215-0.731-2.266
			V44.705z"/>
		<path fill="#666666" d="M398.077,44.705h4.934v0.752h-4.042v3.625h3.777v0.752h-3.777v4.07h4.168v0.753h-5.06V44.705z"/>
		<path fill="#666666" d="M408.976,47.256c0-0.613-0.144-1.094-0.432-1.442s-0.738-0.522-1.352-0.522
			c-0.307,0-0.576,0.046-0.809,0.139c-0.232,0.094-0.428,0.221-0.586,0.384c-0.158,0.162-0.278,0.351-0.362,0.564
			c-0.083,0.214-0.126,0.446-0.126,0.696c0,0.492,0.119,0.874,0.356,1.143c0.237,0.271,0.534,0.486,0.892,0.648
			c0.357,0.163,0.746,0.305,1.164,0.426s0.807,0.279,1.164,0.474c0.357,0.195,0.654,0.458,0.893,0.788
			c0.236,0.33,0.355,0.782,0.355,1.359c0,0.482-0.072,0.905-0.217,1.268c-0.145,0.363-0.348,0.667-0.613,0.913
			c-0.265,0.247-0.58,0.431-0.947,0.55c-0.367,0.121-0.779,0.182-1.234,0.182c-0.947,0-1.668-0.246-2.16-0.738
			s-0.738-1.231-0.738-2.217v-0.293h0.892v0.377c0,0.641,0.163,1.154,0.487,1.541c0.326,0.385,0.822,0.578,1.492,0.578
			c0.641,0,1.159-0.162,1.554-0.488c0.396-0.325,0.593-0.836,0.593-1.533c0-0.371-0.07-0.676-0.209-0.913
			c-0.14-0.237-0.32-0.435-0.543-0.593c-0.225-0.158-0.482-0.287-0.774-0.39s-0.588-0.202-0.886-0.3
			c-0.297-0.098-0.592-0.209-0.885-0.334c-0.293-0.126-0.551-0.287-0.773-0.482c-0.223-0.194-0.404-0.44-0.543-0.738
			c-0.141-0.297-0.21-0.674-0.21-1.129c0-0.391,0.063-0.748,0.188-1.073s0.305-0.602,0.537-0.829s0.518-0.406,0.856-0.537
			c0.339-0.129,0.728-0.195,1.165-0.195c0.928,0,1.611,0.229,2.048,0.684s0.655,1.135,0.655,2.035H408.976z"/>
		<path fill="#666666" d="M413.799,44.705h1.115l2.94,9.952h-0.947l-0.809-2.899h-3.484l-0.809,2.899h-0.948L413.799,44.705z
			 M415.903,51.006l-1.533-5.604h-0.027l-1.533,5.604H415.903z"/>
		<path fill="#666666" d="M422.663,44.705h2.398c0.725,0,1.318,0.107,1.783,0.32c0.465,0.214,0.834,0.529,1.108,0.948
			c0.274,0.418,0.462,0.938,0.565,1.562c0.102,0.622,0.152,1.338,0.152,2.146c0,0.808-0.051,1.523-0.152,2.146
			c-0.104,0.623-0.291,1.143-0.565,1.561s-0.644,0.734-1.108,0.947c-0.465,0.215-1.059,0.321-1.783,0.321h-2.398V44.705z
			 M423.556,53.904h1.449c0.483,0,0.902-0.066,1.255-0.202c0.353-0.134,0.642-0.364,0.864-0.69c0.223-0.324,0.389-0.756,0.494-1.295
			c0.107-0.539,0.161-1.213,0.161-2.021c0-0.817-0.054-1.498-0.161-2.043c-0.105-0.543-0.271-0.977-0.494-1.303
			c-0.223-0.324-0.512-0.555-0.864-0.689s-0.771-0.203-1.255-0.203h-1.449V53.904z"/>
		<path fill="#666666" d="M430.497,44.705h4.935v0.752h-4.042v3.625h3.777v0.752h-3.777v4.07h4.168v0.753h-5.061V44.705z"/>
		<path fill="#666666" d="M272.864,63h2.691c0.473,0,0.882,0.066,1.227,0.201c0.344,0.136,0.627,0.326,0.85,0.572
			s0.389,0.543,0.495,0.892s0.16,0.732,0.16,1.15c0,0.382-0.052,0.743-0.153,1.087s-0.271,0.645-0.509,0.898
			c-0.237,0.256-0.55,0.459-0.94,0.607s-0.869,0.223-1.436,0.223h-1.492v4.321h-0.893V63z M273.757,67.878h1.52
			c0.288,0,0.563-0.034,0.822-0.104c0.26-0.069,0.485-0.186,0.676-0.349c0.191-0.161,0.342-0.376,0.453-0.641
			s0.168-0.587,0.168-0.969c0-0.753-0.18-1.284-0.537-1.597c-0.357-0.311-0.885-0.467-1.582-0.467h-1.52V67.878z"/>
		<path fill="#666666" d="M279.903,63h2.969c0.846,0,1.487,0.219,1.924,0.654c0.438,0.438,0.656,1.051,0.656,1.84
			c0,0.299-0.033,0.586-0.099,0.865c-0.065,0.278-0.167,0.529-0.307,0.752s-0.323,0.414-0.55,0.572
			c-0.229,0.157-0.51,0.27-0.844,0.334v0.027c0.623,0.057,1.057,0.268,1.303,0.635s0.379,0.941,0.397,1.721l0.028,1.088
			c0.009,0.27,0.037,0.532,0.083,0.787c0.046,0.256,0.159,0.481,0.335,0.677h-1.045c-0.103-0.177-0.17-0.386-0.203-0.628
			c-0.032-0.24-0.053-0.496-0.063-0.766l-0.027-0.837c-0.02-0.437-0.057-0.804-0.111-1.101c-0.057-0.297-0.156-0.537-0.301-0.719
			c-0.144-0.181-0.341-0.309-0.592-0.383s-0.576-0.111-0.976-0.111h-1.687v4.544h-0.893V63z M280.796,67.655h1.533
			c0.706,0,1.254-0.157,1.645-0.474s0.586-0.809,0.586-1.478c0-0.614-0.154-1.093-0.461-1.437c-0.307-0.343-0.863-0.516-1.672-0.516
			h-1.631V67.655z"/>
		<path fill="#666666" d="M287.138,67.977c0-1.785,0.273-3.088,0.822-3.91s1.334-1.234,2.355-1.234c1.014,0,1.797,0.412,2.35,1.234
			s0.829,2.125,0.829,3.91c0,1.783-0.276,3.087-0.829,3.909s-1.336,1.233-2.35,1.233c-1.021,0-1.807-0.411-2.355-1.233
			S287.138,69.76,287.138,67.977z M288.03,67.977c0,0.808,0.053,1.49,0.16,2.049c0.106,0.557,0.258,1.01,0.453,1.359
			c0.195,0.348,0.434,0.599,0.717,0.752c0.284,0.153,0.602,0.23,0.955,0.23s0.672-0.077,0.955-0.23s0.523-0.404,0.719-0.752
			c0.194-0.35,0.346-0.803,0.453-1.359c0.105-0.559,0.159-1.241,0.159-2.049c0-0.809-0.054-1.492-0.159-2.05
			c-0.107-0.558-0.259-1.011-0.453-1.358c-0.195-0.35-0.436-0.6-0.719-0.753s-0.602-0.23-0.955-0.23s-0.671,0.077-0.955,0.23
			c-0.283,0.153-0.521,0.403-0.717,0.753c-0.195,0.348-0.347,0.801-0.453,1.358C288.083,66.484,288.03,67.168,288.03,67.977z"/>
		<path fill="#666666" d="M298.136,68.631v-0.753h3.191v5.074h-0.696v-1.646h-0.028c-0.158,0.559-0.437,1-0.836,1.324
			c-0.4,0.326-0.85,0.488-1.352,0.488c-1.023,0-1.809-0.411-2.355-1.233c-0.549-0.822-0.823-2.126-0.823-3.909
			c0-1.785,0.274-3.088,0.823-3.91c0.547-0.822,1.332-1.234,2.355-1.234c0.474,0,0.885,0.075,1.232,0.224
			c0.35,0.148,0.637,0.353,0.865,0.613c0.227,0.26,0.404,0.571,0.529,0.934s0.202,0.758,0.23,1.185h-0.893
			c0-0.297-0.042-0.58-0.125-0.85c-0.084-0.27-0.207-0.504-0.369-0.704c-0.163-0.2-0.367-0.358-0.613-0.474
			c-0.246-0.116-0.533-0.175-0.857-0.175c-0.354,0-0.672,0.077-0.955,0.23s-0.523,0.403-0.719,0.753
			c-0.194,0.348-0.346,0.801-0.453,1.358c-0.105,0.558-0.159,1.241-0.159,2.05c0,0.808,0.054,1.49,0.159,2.049
			c0.107,0.557,0.259,1.01,0.453,1.359c0.195,0.348,0.436,0.599,0.719,0.752s0.602,0.23,0.955,0.23c0.668,0,1.182-0.293,1.539-0.879
			c0.358-0.586,0.537-1.469,0.537-2.648v-0.209H298.136z"/>
		<path fill="#666666" d="M303.153,63h2.969c0.846,0,1.487,0.219,1.924,0.654c0.438,0.438,0.655,1.051,0.655,1.84
			c0,0.299-0.032,0.586-0.098,0.865c-0.065,0.278-0.167,0.529-0.307,0.752s-0.323,0.414-0.55,0.572
			c-0.229,0.157-0.51,0.27-0.844,0.334v0.027c0.622,0.057,1.057,0.268,1.303,0.635s0.379,0.941,0.397,1.721l0.028,1.088
			c0.009,0.27,0.037,0.532,0.083,0.787c0.046,0.256,0.158,0.481,0.335,0.677h-1.046c-0.103-0.177-0.169-0.386-0.202-0.628
			c-0.032-0.24-0.053-0.496-0.063-0.766l-0.027-0.837c-0.02-0.437-0.057-0.804-0.111-1.101c-0.057-0.297-0.156-0.537-0.301-0.719
			c-0.144-0.181-0.341-0.309-0.592-0.383s-0.576-0.111-0.977-0.111h-1.686v4.544h-0.893V63z M304.046,67.655h1.533
			c0.706,0,1.254-0.157,1.645-0.474s0.586-0.809,0.586-1.478c0-0.614-0.154-1.093-0.461-1.437c-0.307-0.343-0.863-0.516-1.672-0.516
			h-1.631V67.655z"/>
		<path fill="#666666" d="M312.618,63h1.115l2.941,9.952h-0.948l-0.809-2.899h-3.485l-0.809,2.899h-0.947L312.618,63z
			 M314.723,69.301l-1.533-5.604h-0.028l-1.533,5.604H314.723z"/>
		<path fill="#666666" d="M317.873,63h1.547l2.397,8.837h0.027L324.243,63h1.463v9.952h-0.893v-9.116h-0.027l-2.578,9.116h-0.837
			l-2.579-9.116h-0.027v9.116h-0.892V63z"/>
		<path fill="#666666" d="M329.847,63h1.115l2.94,9.952h-0.948l-0.809-2.899h-3.484l-0.809,2.899h-0.947L329.847,63z M331.95,69.301
			l-1.533-5.604h-0.027l-1.533,5.604H331.95z"/>
		<path fill="#666666" d="M335.018,63h2.397c0.725,0,1.32,0.106,1.784,0.32c0.465,0.214,0.834,0.529,1.108,0.947
			c0.273,0.419,0.462,0.939,0.564,1.563c0.102,0.621,0.153,1.338,0.153,2.146c0,0.808-0.052,1.523-0.153,2.146
			c-0.103,0.622-0.291,1.143-0.564,1.561c-0.274,0.418-0.644,0.734-1.108,0.947c-0.464,0.215-1.06,0.321-1.784,0.321h-2.397V63z
			 M335.909,72.199h1.45c0.483,0,0.901-0.067,1.255-0.202c0.353-0.134,0.641-0.364,0.863-0.69c0.224-0.324,0.389-0.757,0.496-1.296
			c0.105-0.538,0.16-1.212,0.16-2.021c0-0.818-0.055-1.499-0.16-2.043c-0.107-0.543-0.272-0.978-0.496-1.303
			c-0.223-0.325-0.511-0.555-0.863-0.689c-0.354-0.135-0.771-0.203-1.255-0.203h-1.45V72.199z"/>
		<path fill="#666666" d="M342.767,67.977c0-1.785,0.274-3.088,0.823-3.91c0.548-0.822,1.333-1.234,2.356-1.234
			c1.012,0,1.795,0.412,2.348,1.234s0.83,2.125,0.83,3.91c0,1.783-0.277,3.087-0.83,3.909s-1.336,1.233-2.348,1.233
			c-1.023,0-1.809-0.411-2.356-1.233C343.041,71.063,342.767,69.76,342.767,67.977z M343.659,67.977c0,0.808,0.054,1.49,0.16,2.049
			c0.107,0.557,0.258,1.01,0.453,1.359c0.195,0.348,0.435,0.599,0.719,0.752c0.283,0.153,0.602,0.23,0.955,0.23
			c0.352,0,0.67-0.077,0.954-0.23c0.283-0.153,0.522-0.404,0.718-0.752c0.195-0.35,0.346-0.803,0.453-1.359
			c0.107-0.559,0.16-1.241,0.16-2.049c0-0.809-0.053-1.492-0.16-2.05s-0.258-1.011-0.453-1.358c-0.195-0.35-0.435-0.6-0.718-0.753
			c-0.284-0.153-0.603-0.23-0.954-0.23c-0.354,0-0.672,0.077-0.955,0.23c-0.284,0.153-0.523,0.403-0.719,0.753
			c-0.195,0.348-0.346,0.801-0.453,1.358C343.713,66.484,343.659,67.168,343.659,67.977z"/>
		<path fill="#666666" d="M350.949,63h2.97c0.845,0,1.486,0.219,1.924,0.654c0.436,0.438,0.654,1.051,0.654,1.84
			c0,0.299-0.033,0.586-0.098,0.865c-0.064,0.278-0.167,0.529-0.307,0.752c-0.139,0.223-0.322,0.414-0.551,0.572
			c-0.228,0.157-0.508,0.27-0.843,0.334v0.027c0.622,0.057,1.057,0.268,1.303,0.635c0.247,0.367,0.379,0.941,0.397,1.721
			l0.027,1.088c0.01,0.27,0.037,0.532,0.084,0.787c0.047,0.256,0.158,0.481,0.335,0.677H355.8c-0.102-0.177-0.17-0.386-0.201-0.628
			c-0.033-0.24-0.055-0.496-0.063-0.766l-0.029-0.837c-0.018-0.437-0.055-0.804-0.111-1.101c-0.055-0.297-0.155-0.537-0.299-0.719
			c-0.145-0.181-0.342-0.309-0.593-0.383s-0.577-0.111-0.976-0.111h-1.688v4.544h-0.892V63z M351.841,67.655h1.534
			c0.706,0,1.255-0.157,1.645-0.474c0.391-0.316,0.585-0.809,0.585-1.478c0-0.614-0.152-1.093-0.459-1.437
			c-0.307-0.343-0.865-0.516-1.674-0.516h-1.631V67.655z"/>
		<path fill="#666666" d="M358.267,63h4.936v0.752h-4.043v3.625h3.777v0.752h-3.777v4.07h4.168v0.753h-5.061V63z"/>
		<path fill="#666666" d="M369.167,65.551c0-0.613-0.145-1.094-0.432-1.443c-0.289-0.348-0.738-0.522-1.352-0.522
			c-0.308,0-0.577,0.046-0.809,0.14c-0.232,0.093-0.428,0.221-0.586,0.383c-0.158,0.163-0.279,0.352-0.363,0.564
			c-0.082,0.215-0.125,0.446-0.125,0.697c0,0.492,0.119,0.873,0.355,1.143c0.237,0.27,0.535,0.486,0.893,0.648
			s0.746,0.305,1.164,0.426c0.418,0.12,0.806,0.278,1.164,0.473c0.357,0.195,0.654,0.459,0.892,0.789s0.355,0.782,0.355,1.358
			c0,0.483-0.071,0.906-0.216,1.269s-0.349,0.666-0.613,0.913c-0.266,0.246-0.581,0.43-0.948,0.55
			c-0.367,0.121-0.778,0.182-1.233,0.182c-0.947,0-1.668-0.246-2.16-0.738c-0.493-0.492-0.738-1.231-0.738-2.217v-0.293h0.891v0.377
			c0,0.641,0.163,1.154,0.488,1.54s0.822,0.579,1.492,0.579c0.641,0,1.158-0.163,1.553-0.488c0.396-0.326,0.594-0.836,0.594-1.533
			c0-0.371-0.07-0.676-0.21-0.913s-0.32-0.435-0.543-0.593c-0.224-0.158-0.481-0.287-0.774-0.391
			c-0.292-0.102-0.588-0.201-0.885-0.299s-0.592-0.209-0.885-0.335s-0.551-0.286-0.773-0.481c-0.224-0.194-0.404-0.441-0.544-0.738
			s-0.209-0.674-0.209-1.129c0-0.391,0.063-0.748,0.188-1.073s0.304-0.602,0.536-0.829s0.519-0.406,0.856-0.537
			c0.34-0.129,0.728-0.195,1.165-0.195c0.929,0,1.612,0.229,2.048,0.684c0.438,0.455,0.656,1.134,0.656,2.035H369.167z"/>
		<path fill="#666666" d="M375.537,63h2.69c0.474,0,0.883,0.066,1.227,0.201c0.344,0.136,0.627,0.326,0.85,0.572
			c0.224,0.246,0.389,0.543,0.496,0.892c0.105,0.349,0.16,0.732,0.16,1.15c0,0.382-0.053,0.743-0.154,1.087
			s-0.271,0.645-0.508,0.898c-0.238,0.256-0.551,0.459-0.941,0.607s-0.869,0.223-1.436,0.223h-1.492v4.321h-0.892V63z
			 M376.429,67.878h1.52c0.289,0,0.563-0.034,0.822-0.104c0.261-0.069,0.486-0.186,0.676-0.349c0.191-0.161,0.342-0.376,0.453-0.641
			c0.112-0.265,0.168-0.587,0.168-0.969c0-0.753-0.18-1.284-0.537-1.597c-0.357-0.311-0.885-0.467-1.582-0.467h-1.52V67.878z"/>
		<path fill="#666666" d="M382.575,63h4.936v0.752h-4.043v3.625h3.777v0.752h-3.777v4.07h4.168v0.753h-5.061V63z"/>
		<path fill="#666666" d="M389.112,63h2.969c0.846,0,1.487,0.219,1.924,0.654c0.438,0.438,0.656,1.051,0.656,1.84
			c0,0.299-0.033,0.586-0.099,0.865c-0.065,0.278-0.167,0.529-0.307,0.752s-0.323,0.414-0.55,0.572
			c-0.229,0.157-0.51,0.27-0.844,0.334v0.027c0.623,0.057,1.057,0.268,1.303,0.635s0.379,0.941,0.397,1.721l0.028,1.088
			c0.009,0.27,0.037,0.532,0.083,0.787c0.046,0.256,0.159,0.481,0.335,0.677h-1.045c-0.103-0.177-0.17-0.386-0.203-0.628
			c-0.032-0.24-0.053-0.496-0.063-0.766l-0.027-0.837c-0.02-0.437-0.057-0.804-0.111-1.101c-0.057-0.297-0.156-0.537-0.301-0.719
			c-0.144-0.181-0.341-0.309-0.592-0.383s-0.576-0.111-0.976-0.111h-1.687v4.544h-0.893V63z M390.005,67.655h1.533
			c0.706,0,1.254-0.157,1.645-0.474s0.586-0.809,0.586-1.478c0-0.614-0.154-1.093-0.461-1.437c-0.307-0.343-0.863-0.516-1.672-0.516
			h-1.631V67.655z"/>
		<path fill="#666666" d="M396.431,63h0.892v9.199h4.126v0.753h-5.018V63z"/>
	</g>
	<g>
		<path fill="#FF0000" d="M39.597,83.037c0.214-0.432-0.045-0.908-0.476-1.123c-1.019-0.505-1.583-0.978-1.816-2.592
			c-0.068-0.477-0.496-0.939-0.973-0.877c-0.476,0.061-0.752,0.512-0.752,0.992c0,1.869,1.347,3.568,2.896,3.95
			C38.941,83.503,39.385,83.467,39.597,83.037z"/>
		<path fill="#FFCC00" d="M33.75,78.381c0-0.518-0.421-0.939-0.942-0.939c-0.519,0-0.941,0.422-0.941,0.939l0.062,5.413
			c0,0.519,0.36,0.942,0.879,0.942c0.521,0,0.879-0.424,0.879-0.942L33.75,78.381z"/>
		<path fill="#FF0000" d="M35.69,15.135c-0.053-3.873,0.782-5.363,0.95-5.91c0.063-0.21-0.015-0.392-0.165-0.445
			c-0.208-0.076-0.343,0.068-0.412,0.187c-0.269,0.463-0.409,0.951-1.145,0.689c-0.59-0.211-0.784-2.277-1.009-2.906
			c-0.083-0.233-0.225-0.341-0.409-0.3c-0.185,0.042-0.292,0.202-0.254,0.423c0.102,0.572,1.005,3.913,1.005,8.472
			c0,19.003-5.835,25.24-5.835,36.507c0,6.027,0.42,10.747,3.546,19.308c0.92,2.515,1.794,2.735,2.491,2.829
			c1.302,0.174,2.483,0.549,3.603,1.065c1.12,0.517,2.185,1.175,3.248,2.165c0.315,0.288,0.57,0.441,0.864,0.467
			c0.293,0.023,0.625-0.072,1.09-0.189c10.213-3.145,22.02-11.197,22.02-26.287C65.279,30.327,35.854,26.98,35.69,15.135z
			 M47.098,73.604c-0.525,0.26-1.068,0.357-1.262,0.008c-0.198-0.361,0.023-0.743,0.53-1.265c4.721-4.873,8.441-10.907,8.441-20.721
			c0-6.564-3.913-14.644-14.817-23.473c-1.917-1.552-3.384-3.419-3.879-5.54c-0.043-0.185-0.006-0.468,0.236-0.529
			c0.257-0.064,0.451,0.094,0.581,0.345c1.316,2.566,2.262,3.397,4.302,4.914c6.566,4.883,18.832,11.734,18.832,25.175
			C60.06,62.922,50.979,71.688,47.098,73.604z"/>
		<path fill="#FFCC00" d="M29.01,74.576c0.289-0.279,0.476-0.748-0.143-1.639c-4.076-5.861-8.421-11.916-8.421-20.728
			c0-8.196,3.247-12.952,6.375-18.047c2.64-4.302,5.678-9.016,5.506-18.715c-0.026-1.463-0.024-2.809-0.072-4.323
			c-0.164-5.158-0.498-9.629-0.567-10.565c-0.028-0.391-0.371-0.546-0.595-0.533c-0.23,0.014-0.543,0.196-0.521,0.571
			c0.142,3.343,0.457,8.411,0.348,13.169c-0.068,2.972-0.474,5.599-0.833,7.099c-2.897,12.11-15.258,16.92-15.764,29.855
			c-0.229,5.861,0.844,15.203,13.167,23.723C27.912,74.734,28.574,74.996,29.01,74.576z"/>
		<path fill="#018101" d="M23.26,77.618c0.438,0.113,0.884,0.024,1.055-0.365c0.176-0.396-0.037-0.86-0.424-1.033
			C11.979,70.033,5.454,61.572,6.063,50.792C6.815,37.448,24.169,26.801,27.879,19.44c1.241-2.461,1.641-3.783,1.641-7.846
			c0-1.916-0.352-6.191-0.376-6.527c-0.032-0.437-0.324-0.572-0.575-0.556c-0.256,0.016-0.555,0.178-0.534,0.597
			c0.021,0.421,0.276,4.295,0.267,6.966c-0.011,3.141-0.87,4.464-1.045,4.928C23.601,26.716,0,31.848,0,51.209
			C0,66.779,12.854,74.898,23.26,77.618z"/>
		<path fill="#018101" d="M27.028,83.388c1.549-0.382,2.895-2.081,2.895-3.95c0-0.48-0.276-0.932-0.752-0.992
			c-0.477-0.063-0.905,0.4-0.974,0.877c-0.232,1.614-0.796,2.087-1.816,2.592c-0.431,0.215-0.689,0.691-0.477,1.123
			C26.118,83.467,26.563,83.503,27.028,83.388z"/>
	</g>
</g>
</svg>
