<?xml version="1.0" encoding="utf-8"?>
<!-- Generator: Adobe Illustrator 16.0.3, SVG Export Plug-In . SVG Version: 6.00 Build 0)  -->
<!DOCTYPE svg PUBLIC "-//W3C//DTD SVG 1.1//EN" "http://www.w3.org/Graphics/SVG/1.1/DTD/svg11.dtd">
<svg version="1.1" id="Layer_1" xmlns="http://www.w3.org/2000/svg" xmlns:xlink="http://www.w3.org/1999/xlink" x="0px" y="0px"
	 width="208px" height="205px" viewBox="0 0 208 205" enable-background="new 0 0 208 205" xml:space="preserve">
<g>
	<path fill="#DDDDDD" d="M87.125,120.18v-3.604c4.818-2.719,8.75-9.489,8.75-16.258c0-10.875,0-19.688-13.125-19.688
		s-13.125,8.813-13.125,19.688c0,6.774,3.931,13.542,8.75,16.258v3.604c-14.84,1.213-26.25,8.506-26.25,17.32h61.25
		C113.375,128.686,101.965,121.393,87.125,120.18z"/>
	<path fill="#DDDDDD" d="M56.993,121.867c3.78-2.469,8.48-4.35,13.656-5.496c-1.028-1.217-1.962-2.572-2.767-4.033
		c-2.079-3.775-3.179-7.936-3.179-12.025c0-5.882,0-11.436,2.091-15.98c2.029-4.409,5.683-7.141,10.883-8.168
		C76.52,70.936,73.444,67.5,65.249,67.5c-13.125,0-13.125,8.813-13.125,19.688c0,6.773,3.931,13.543,8.75,16.257v3.607
		c-14.84,1.215-26.25,8.504-26.25,17.317h19.073C54.691,123.49,55.789,122.65,56.993,121.867L56.993,121.867z"/>
</g>
</svg>
