<?xml version="1.0" encoding="utf-8"?>
<!-- Generator: Adobe Illustrator 16.0.3, SVG Export Plug-In . SVG Version: 6.00 Build 0)  -->
<!DOCTYPE svg PUBLIC "-//W3C//DTD SVG 1.1//EN" "http://www.w3.org/Graphics/SVG/1.1/DTD/svg11.dtd">
<svg version="1.1" id="Layer_1" xmlns="http://www.w3.org/2000/svg" xmlns:xlink="http://www.w3.org/1999/xlink" x="0px" y="0px"
	 width="208px" height="205px" viewBox="0 0 208 205" enable-background="new 0 0 208 205" xml:space="preserve">
<g>
	<path fill="#DDDDDD" d="M128.375,68.125v52.813H85.719c-3.366,0-6.094-2.728-6.094-6.094c0-3.365,2.728-6.094,6.094-6.094h38.594
		V60H83.688c-4.469,0-8.125,3.656-8.125,8.125v48.75c0,4.469,3.656,8.125,8.125,8.125h48.75V68.125H128.375z"/>
	<path fill="#DDDDDD" d="M85.723,112.813L85.723,112.813c-0.002,0-0.002,0-0.004,0c-1.122,0-2.031,0.91-2.031,2.031
		s0.909,2.031,2.031,2.031c0.002,0,0.002,0,0.004,0l0,0h38.587v-4.063H85.723L85.723,112.813z"/>
</g>
</svg>
