<?xml version="1.0" encoding="utf-8"?>
<!-- Generator: Adobe Illustrator 16.0.3, SVG Export Plug-In . SVG Version: 6.00 Build 0)  -->
<!DOCTYPE svg PUBLIC "-//W3C//DTD SVG 1.1//EN" "http://www.w3.org/Graphics/SVG/1.1/DTD/svg11.dtd">
<svg version="1.1" id="Layer_1" xmlns="http://www.w3.org/2000/svg" xmlns:xlink="http://www.w3.org/1999/xlink" x="0px" y="0px"
	 width="208px" height="205px" viewBox="0 0 208 205" enable-background="new 0 0 208 205" xml:space="preserve">
<path fill="#DDDDDD" d="M95.875,80.625v-8.75h-43.75v8.75H39v8.75c0,7.249,5.875,13.125,13.125,13.125
	c1.371,0,2.696-0.211,3.939-0.602c3.157,4.514,7.973,7.78,13.561,8.915v13.563H65.25c-4.832,0-8.75,3.918-8.75,8.75h35
	c0-4.832-3.918-8.75-8.75-8.75h-4.375v-13.563c5.588-1.135,10.402-4.397,13.561-8.915c1.244,0.391,2.566,0.602,3.939,0.602
	c7.25,0,13.125-5.876,13.125-13.125v-8.75H95.875z M52.125,97.305c-4.373,0-7.93-3.557-7.93-7.93V85h7.93v4.375
	c0,2.747,0.509,5.375,1.432,7.799C53.091,97.259,52.616,97.305,52.125,97.305z M103.805,89.375c0,4.373-3.557,7.93-7.93,7.93
	c-0.491,0-0.966-0.046-1.432-0.131c0.923-2.422,1.432-5.052,1.432-7.799V85h7.93V89.375z"/>
</svg>
